# xmcd CD database file
#
# Track frame offsets:
#	150
#	14346
#	25398
#	37858
#	54008
#	63702
#	77307
#	90737
#	111332
#	126629
#	138694
#	151807
#	168676
#	187954
#	200994
#	216750
#	233913
#	245163
#
# Disc length: 3510 seconds
#
# Revision: 0
# Processed by: cddbd v1.5.2PL0 Copyright (c) Steve Scherf et al.
# Submitted via: CDex 1.51
#
DISCID=020db412
DTITLE=Vários - Moda de Viola
DYEAR=2007
DGENRE=Country
TTITLE0=Belmonte e Amaraí - A morte do carreiro
TTITLE1=Cacique e Pajé - Casa de infância
TTITLE2=Cacique e Pajé - Cabritinha de ouro
TTITLE3=Carreiro e Carreirinho - Boi Soberano
TTITLE4=Craveiro e Cravinho - Ser feio não é defeito
TTITLE5=Marechal e Floriano - Bandeirante Fernão
TTITLE6=Peão Brasil e Pratini - Rainha do rodeio
TTITLE7=Pirajá e Pratini - Fogueira
TTITLE8=Carreiro e Carreirinho - Canoeiro
TTITLE9=Goiano e Paranaense - O caipira e o lavrador
TTITLE10=Goiano e Paranaense - Sede de mudança
TTITLE11=Goiano e Paranaense - O doutor e o caipira
TTITLE12=Jaque e Jonas - Potro assassino
TTITLE13=Jad e Jeferson - Saco de ouro
TTITLE14=Lourenço e Lourival - Burro inocente
TTITLE15=Moreno e Moreninho - João Boiadeiro
TTITLE16=Pedro Bento e Zé da Estrada - Mourão da porteira
TTITLE17=Tião Carreiro e Pardinho - Boiadeiro de palavra
EXTD=YEAR: 2007
EXTT0=
EXTT1=
EXTT2=
EXTT3=
EXTT4=
EXTT5=
EXTT6=
EXTT7=
EXTT8=
EXTT9=
EXTT10=
EXTT11=
EXTT12=
EXTT13=
EXTT14=
EXTT15=
EXTT16=
EXTT17=
PLAYORDER=
